<?xml version="1.0" encoding="UTF-8"?>
<svg xmlns="http://www.w3.org/2000/svg" width="132" height="129" viewBox="0 0 132 129">
<g fill="#ffffff" fill-rule="evenodd">
  <path d="M 63 66 L 63 69 L 65 70 L 65 73 L 67 74 L 68 73 L 68 70 L 70 68 L 70 66 Z"/>
  <path d="M 85 57 L 83 60 L 84 63 L 86 65 L 90 65 L 92 61 L 91 59 L 89 57 Z"/>
  <path d="M 44 57 L 42 59 L 42 61 L 41 62 L 43 65 L 47 65 L 49 63 L 50 60 L 48 57 Z"/>
  <path d="M 50 66 L 50 73 L 52 77 L 60 82 L 75 81 L 79 79 L 83 73 L 83 67 L 80 61 L 70 56 L 63 56 L 57 58 L 53 61 Z M 54 67 L 60 61 L 69 60 L 74 62 L 79 67 L 79 72 L 76 76 L 72 78 L 61 78 L 55 74 Z"/>
  <path d="M 41 11 L 26 52 L 27 116 L 37 100 L 32 53 L 64 30 L 100 50 L 96 99 L 105 116 L 107 52 L 95 14 L 84 12 L 78 27 L 55 27 Z M 88 17 L 90 18 L 92 22 L 92 26 L 93 27 L 93 33 L 91 36 L 90 35 L 86 35 L 84 33 L 84 27 L 85 26 L 86 20 Z M 45 17 L 48 22 L 48 25 L 49 26 L 49 33 L 47 35 L 43 35 L 42 36 L 40 33 L 40 27 L 41 26 L 41 22 L 42 21 L 42 19 L 44 17 Z"/>
</g>
</svg>